<?xml version="1.0" encoding="iso-8859-1"?>
<!-- Uploaded to: SVG Repo, www.svgrepo.com, Generator: SVG Repo Mixer Tools -->
<svg fill="#000000" version="1.1" id="Layer_1" xmlns="http://www.w3.org/2000/svg" xmlns:xlink="http://www.w3.org/1999/xlink" 
	 viewBox="0 0 512 512" xml:space="preserve">
<g>
	<g>
		<path d="M410.453,63.147c-1.707-1.707-4.267-3.413-7.68-3.413H109.227c-3.413,0-5.973,1.707-7.68,3.413
			c-7.68,10.24-16.213,28.16-16.213,56.32c0,28.16,8.533,46.08,16.213,56.32c1.707,1.707,4.267,3.413,7.68,3.413h294.4
			c2.56,0,5.12-1.707,6.827-3.413c7.68-10.24,16.213-28.16,16.213-56.32C426.667,91.307,418.133,73.387,410.453,63.147z"/>
	</g>
</g>
<g>
	<g>
		<rect x="204.8" y="324.267" width="34.133" height="34.133"/>
	</g>
</g>
<g>
	<g>
		<rect x="204.8" y="418.133" width="34.133" height="34.133"/>
	</g>
</g>
<g>
	<g>
		<rect x="110.933" y="324.267" width="34.133" height="34.133"/>
	</g>
</g>
<g>
	<g>
		<rect x="110.933" y="418.133" width="34.133" height="34.133"/>
	</g>
</g>
<g>
	<g>
		<path d="M430.933,273.92l-1.707-0.853H384v-34.133h45.227l1.707-0.853c2.56-1.707,55.467-34.133,55.467-118.613
			S433.493,2.56,430.933,0.853L429.227,0H82.773l-1.707,0.853C78.507,2.56,25.6,35.84,25.6,119.467S78.507,236.373,81.067,238.08
			l1.707,0.853H128v34.133H82.773l-1.707,0.853c-2.56,1.707-55.467,34.987-55.467,118.613S78.507,509.44,81.067,511.147L82.773,512
			h346.453l1.707-0.853c2.56-1.707,55.467-34.133,55.467-118.613S433.493,275.627,430.933,273.92z M109.227,196.267
			c-8.533,0-16.213-4.267-21.333-11.093c-9.387-11.947-19.627-33.28-19.627-65.707s10.24-53.76,19.627-65.707
			c5.12-6.827,12.8-11.093,21.333-11.093h294.4c8.533,0,16.213,4.267,21.333,11.093c8.533,11.947,19.627,33.28,19.627,65.707
			s-10.24,53.76-19.627,65.707c-5.12,6.827-12.8,11.093-21.333,11.093H109.227z M162.133,238.933v34.133h-17.067v-34.133H162.133z
			 M162.987,458.24h-0.853c0,5.973-5.12,11.093-11.093,11.093h-46.08c-5.973,0-11.093-5.12-11.093-11.093v-46.933
			c0-5.12,5.12-10.24,11.093-10.24h46.933c5.973,0,11.093,5.12,11.093,11.093V458.24z M162.987,364.373h-0.853
			c0,5.973-5.12,11.093-11.093,11.093h-46.08c-5.973,0-11.093-5.12-11.093-11.093V317.44c0-5.12,5.12-10.24,11.093-10.24h46.933
			c5.973,0,11.093,5.12,11.093,11.093V364.373z M179.2,238.933h153.6v34.133H179.2V238.933z M256,458.24
			c0,5.973-5.12,11.093-11.093,11.093h-46.933c-5.973,0-11.093-5.12-11.093-11.093v-46.933c0-5.973,5.12-11.093,11.093-11.093
			h46.933c5.973,0,11.093,5.12,11.093,11.093V458.24z M256,364.373c0,5.973-5.12,11.093-11.093,11.093h-46.933
			c-5.973,0-11.093-5.12-11.093-11.093V317.44c0-5.973,5.12-11.093,11.093-11.093h46.933c5.973,0,11.093,5.12,11.093,11.093V364.373
			z M324.267,383.147V384v85.333c0,5.12-3.413,8.533-8.533,8.533s-8.533-3.413-8.533-8.533V384v-0.853
			c-14.507-3.413-25.6-14.507-25.6-29.013c0-14.507,12.8-46.933,34.133-46.933s34.133,32.427,34.133,46.933
			C349.867,367.787,338.773,379.733,324.267,383.147z M349.867,238.933h17.067v34.133h-17.067V238.933z M392.533,477.867
			c-21.333,0-34.133-32.427-34.133-46.933c0-13.653,11.093-25.6,25.6-29.013v-0.853v-85.333c0-5.12,3.413-8.533,8.533-8.533
			s8.533,3.413,8.533,8.533v85.333v0.853c14.507,3.413,25.6,14.507,25.6,29.013S413.867,477.867,392.533,477.867z"/>
	</g>
</g>
<g>
	<g>
		<path d="M315.733,324.267c-6.827,0-17.067,19.627-17.067,29.867c0,6.827,7.68,12.8,17.067,12.8s17.067-5.973,17.067-12.8
			C332.8,343.893,322.56,324.267,315.733,324.267z"/>
	</g>
</g>
<g>
	<g>
		<path d="M392.533,418.133c-9.387,0-17.067,5.973-17.067,12.8c0,10.24,10.24,29.867,17.067,29.867s17.067-19.627,17.067-29.867
			C409.6,424.107,401.92,418.133,392.533,418.133z"/>
	</g>
</g>
</svg>